HIERARCHY
ROOT Hips
{
	OFFSET 0.00000 0.00000 0.00000
	CHANNELS 6 Xposition Yposition Zposition Yrotation Zrotation Xrotation 
	JOINT Lumbar
	{
		OFFSET 0 0 0
		CHANNELS 3 Zrotation Xrotation Yrotation
		JOINT Neck
		{
			OFFSET 0.00 0.2701 0.00
			CHANNELS 3 Zrotation Xrotation Yrotation
			End Site
			{
				OFFSET 0.00 0.1379 0.00
			}
		}
		JOINT RightShoulder
		{
			OFFSET 0.0119 0.2289 0.1181
			CHANNELS 3 Zrotation Xrotation Yrotation
			JOINT RightElbow
			{
				OFFSET 0.00 -0.1475 0.00
				CHANNELS 2 Zrotation Yrotation
				JOINT RightWrist
				{
					OFFSET 0.00 -0.1605 0.00
					CHANNELS 2 Zrotation Xrotation
					End Site
					{
						OFFSET 0.0040 -0.1068 0.0006
					}
				}
			}
		}
		JOINT LeftShoulder
		{
			OFFSET 0.0119 0.2289 -0.1181
			CHANNELS 3 Zrotation Xrotation Yrotation
			JOINT LeftElbow
			{
				OFFSET 0.00 -0.1475 0.00
				CHANNELS 2 Zrotation Yrotation
				JOINT LeftWrist
				{
					OFFSET 0.00 -0.1605 0.00
					CHANNELS 2 Zrotation Xrotation
					End Site
					{
						OFFSET 0.0040 -0.1068 -0.0006
					}
				}
			}
		}
	}
	JOINT RightHip
	{
		OFFSET 0.0316 -0.0424 0.0458
		CHANNELS 3 Zrotation Xrotation Yrotation
		JOINT RightKnee
		{
			OFFSET 0.00 -0.2438 0.00
			CHANNELS 1 Zrotation
			JOINT RightAnkle
			{
				OFFSET 0.00 -0.2449 0.00
				CHANNELS 3 Zrotation Xrotation Yrotation
				End Site
				{
					OFFSET 0.1237 -0.0542 0.0051
				}
			}
		}
	}
	JOINT LeftHip
	{
		OFFSET 0.0316 -0.0424 -0.0458
		CHANNELS 3 Zrotation Xrotation Yrotation
		JOINT LeftKnee
		{
			OFFSET 0.00 -0.2438 0.00
			CHANNELS 1 Zrotation
			JOINT LeftAnkle
			{
				OFFSET 0.00 -0.2449 0.00
				CHANNELS 3 Zrotation Xrotation Yrotation
				End Site
				{
					OFFSET 0.1237 -0.0542 -0.0051
				}
			}
		}
	}
}
MOTION
Frames: 11
Frame Time: 0.02
0.00136 9e-05 -0.00108 20.85723 -22.65251 -7.5776 46.17225 2.71544 -5.50251 -5.5471 -1.93652 -0.36124 -21.94077 -9.10464 -0.74266 36.46216 135.62831 15.10993 10.62152 -24.14192 12.36003 -6.37874 41.47999 -74.98368 8.05428 3.13533 34.21806 -0.62045 -7.4673 -20.74276 -7.97321 -3.35985 -3.92003 37.23458 9.3613 10.30655 -27.02384 -8.49108 3.70019 4.12945
0.00088 6e-05 -0.00069 20.89299 -22.62523 -7.57395 45.99192 2.71402 -5.55594 -5.6393 -1.98371 -0.36271 -21.79678 -9.3569 -0.21939 36.59723 131.03143 14.26909 9.57848 -24.10599 12.32539 -6.1839 41.33572 -79.22313 9.12651 2.41159 34.22945 -0.71328 -8.05626 -20.74395 -7.9509 -3.30262 -3.8925 37.26955 9.34788 10.22903 -27.0124 -8.48862 3.69477 4.12662
0.0004 3e-05 -0.0003 20.92865 -22.59806 -7.57026 45.81166 2.71264 -5.60937 -5.7316 -2.03091 -0.36426 -21.65307 -9.60869 0.30272 36.73228 126.44875 13.43097 8.53865 -24.06983 12.29122 -5.99037 41.1915 -83.44427 10.19418 1.691 34.24102 -0.80595 -8.64391 -20.74519 -7.92867 -3.24552 -3.86504 37.30463 9.33433 10.15124 -27.001 -8.48623 3.68941 4.12381
-8e-05 0 0.0001 20.96431 -22.57086 -7.56661 45.63181 2.71123 -5.66267 -5.82353 -2.07798 -0.36574 -21.50951 -9.86022 0.82443 36.86701 121.86604 12.59274 7.49882 -24.03397 12.25675 -5.79626 41.04762 -87.66951 11.26283 0.96969 34.25239 -0.89851 -9.23117 -20.74638 -7.90644 -3.18845 -3.8376 37.33951 9.32093 10.0739 -26.9896 -8.48378 3.68401 4.12099
-0.00057 -2e-05 0.00049 21.00003 -22.54358 -7.56303 45.45204 2.70978 -5.71591 -5.91532 -2.12498 -0.3671 -21.36571 -10.11214 1.34717 37.00161 117.2691 11.75174 6.45579 -23.99844 12.22167 -5.60052 40.90384 -91.91583 12.3367 0.24473 34.26355 -0.99118 -9.81943 -20.74752 -7.88414 -3.13128 -3.8101 37.37424 9.3077 9.99696 -26.97817 -8.48124 3.67855 4.11813
-0.00105 -5e-05 0.00088 21.03557 -22.51664 -7.55909 45.27075 2.70853 -5.76973 -6.00874 -2.17259 -0.36906 -21.2222 -10.36365 1.86797 37.13757 112.71667 10.91974 5.42274 -23.96094 12.18941 -5.41161 40.75869 -96.08433 13.39143 -0.46671 34.27603 -1.08385 -10.40571 -20.74897 -7.86204 -3.07434 -3.78272 37.4101 9.29348 9.91736 -26.96683 -8.47916 3.6734 4.11545
-0.00153 -8e-05 0.00127 21.07147 -22.48898 -7.5559 45.09277 2.70688 -5.82234 -6.09849 -2.21895 -0.36982 -21.07834 -10.61563 2.39194 37.27068 108.07997 10.07058 4.37083 -23.92755 12.15154 -5.20931 40.61649 -100.40231 14.48286 -1.20414 34.28567 -1.17643 -10.99557 -20.74978 -7.83956 -3.01698 -3.75513 37.44352 9.28133 9.84338 -26.95533 -8.47613 3.66762 4.11239
-0.00202 -0.00011 0.00167 21.10697 -22.4621 -7.55198 44.91168 2.70561 -5.87605 -6.19214 -2.26637 -0.37168 -20.93464 -10.86732 2.91327 37.40636 103.52046 9.2372 3.33616 -23.89018 12.1188 -5.01913 40.47148 -104.58702 15.54165 -1.91839 34.29823 -1.26905 -11.58171 -20.75121 -7.81745 -2.96004 -3.72775 37.47942 9.26716 9.76389 -26.94397 -8.47403 3.66244 4.1097
-0.00252 -0.00013 0.00207 21.1423 -22.43569 -7.54731 44.72686 2.70475 -5.93121 -6.28862 -2.31551 -0.37492 -20.79169 -11.11823 3.43057 37.54554 99.05547 8.42294 2.32272 -23.84864 12.09254 -4.84471 40.32329 -108.59149 16.55598 -2.60129 34.31324 -1.36196 -12.16528 -20.75327 -7.79571 -2.90346 -3.70053 37.51749 9.25094 9.67881 -26.9328 -8.47286 3.65791 4.1074
-0.00294 -0.00015 0.00243 21.17955 -22.40514 -7.54737 44.56367 2.70136 -5.97834 -6.36301 -2.35606 -0.37033 -20.64608 -11.37237 3.96868 37.66566 94.04702 7.49816 1.18754 -23.83314 12.02962 -4.58244 40.19414 -113.58089 17.81242 -3.45552 34.31078 -1.45393 -12.76963 -20.75132 -7.7716 -2.84432 -3.67212 37.54048 9.24774 9.62935 -26.9206 -8.46575 3.6494 4.10269
-0.00353 -0.0002 0.00288 21.21213 -22.38425 -7.53719 44.3548 2.70343 -6.0422 -6.48769 -2.41386 -0.38216 -20.50506 -11.62043 4.46429 37.82525 90.18527 6.80692 0.30907 -23.76143 12.04363 -4.50366 40.02442 -116.52583 18.56683 -3.95409 34.34729 -1.54741 -13.32621 -20.7581 -7.75262 -2.79092 -3.64639 37.59692 9.21632 9.50257 -26.91051 -8.47153 3.64944 4.10315
